<svg width="26" height="26" viewBox="0 0 26 26" fill="currentColor" xmlns="http://www.w3.org/2000/svg">
<path d="M13.6304 3.77976C15.3193 2.48734 17.3094 1.72792 18.9583 2.68017C20.6071 3.63134 20.9451 5.73517 20.6699 7.84334C20.6367 8.10478 20.593 8.37273 20.5388 8.64717C20.8039 8.73817 21.0578 8.83423 21.3004 8.93534C23.2634 9.75217 24.9166 11.0966 24.9166 13C24.9166 14.9034 23.2634 16.2478 21.3004 17.0647C21.057 17.1658 20.8032 17.2618 20.5388 17.3528C20.593 17.6273 20.6367 17.8952 20.6699 18.1567C20.9451 20.2648 20.6071 22.3687 18.9583 23.3198C17.3105 24.2721 15.3183 23.5127 13.6304 22.2213C13.4149 22.0557 13.2046 21.8834 12.9999 21.7046C12.7883 21.8888 12.5781 22.061 12.3694 22.2213C10.6816 23.5127 8.69042 24.2721 7.04159 23.3198C5.39384 22.3687 5.05584 20.2648 5.32992 18.1567C5.36557 17.8874 5.40964 17.6193 5.46209 17.3528C5.19631 17.2618 4.94209 17.1658 4.69942 17.0647C2.73642 16.2478 1.08325 14.9034 1.08325 13C1.08325 11.0966 2.73642 9.75217 4.69942 8.93534C4.94281 8.83423 5.19703 8.73817 5.46209 8.64717C5.40792 8.37273 5.36386 8.10478 5.32992 7.84334C5.05584 5.73517 5.39384 3.63134 7.04159 2.68017C8.68934 1.72901 10.6816 2.48734 12.3694 3.77976C12.5789 3.93864 12.789 4.11053 12.9999 4.29542C13.2115 4.11126 13.4217 3.93937 13.6304 3.77976ZM7.56159 17.9151C7.52909 18.0942 7.50164 18.2679 7.47925 18.4362C7.22684 20.3786 7.70242 21.1987 8.126 21.4435C8.55067 21.6883 9.49859 21.6905 11.0543 20.501C11.1938 20.3935 11.3307 20.2826 11.4648 20.1684C10.9307 19.5624 10.4278 18.9297 9.95792 18.2726C9.1536 18.1941 8.35379 18.0748 7.56159 17.9151ZM18.4415 17.9151C17.6933 18.0675 16.8945 18.1866 16.0452 18.2726C15.5461 18.9659 15.0438 19.5979 14.5383 20.1684C14.6762 20.2861 14.8127 20.3966 14.9478 20.4999C16.5034 21.6905 17.4524 21.6883 17.876 21.4435C18.3007 21.1987 18.7752 20.3786 18.5228 18.4362C18.4999 18.2618 18.4728 18.0881 18.4415 17.9151ZM12.9999 9.75001C12.3579 9.75001 11.7433 9.76842 11.1561 9.80526C10.8304 10.2964 10.5068 10.82 10.1854 11.3761C9.87759 11.9088 9.58604 12.4507 9.31117 13.0011C9.57334 13.5283 9.86475 14.0696 10.1854 14.625C10.5061 15.1804 10.8296 15.704 11.1561 16.1958C12.3846 16.2681 13.6163 16.2681 14.8448 16.1958C15.1706 15.7047 15.4938 15.1811 15.8144 14.625C16.1226 14.0923 16.4145 13.5504 16.6898 13C16.4145 12.4496 16.1226 11.9077 15.8144 11.375C15.5072 10.842 15.1839 10.3186 14.8448 9.80526C14.2306 9.76813 13.6153 9.7497 12.9999 9.75001ZM6.02325 10.7467C5.85779 10.8059 5.6938 10.8691 5.53142 10.9363C3.72225 11.6881 3.24992 12.5103 3.24992 13C3.24992 13.4897 3.72334 14.3119 5.53142 15.0638C5.68886 15.1288 5.85281 15.192 6.02325 15.2533C6.28133 14.4876 6.57819 13.7356 6.91267 13C6.57856 12.2644 6.28098 11.5124 6.02325 10.7467ZM19.9766 10.7467C19.7189 11.5124 19.4224 12.2644 19.0883 13C19.4393 13.7768 19.7361 14.5308 19.9766 15.2533C20.142 15.1941 20.306 15.1309 20.4684 15.0638C22.2776 14.3119 22.7499 13.4897 22.7499 13C22.7499 12.5103 22.2776 11.6892 20.4684 10.9363C20.306 10.8691 20.142 10.8059 19.9766 10.7467ZM12.9999 11.375C13.4309 11.375 13.8442 11.5462 14.149 11.851C14.4537 12.1557 14.6249 12.569 14.6249 13C14.6249 13.431 14.4537 13.8443 14.149 14.1491C13.8442 14.4538 13.4309 14.625 12.9999 14.625C12.5689 14.625 12.1556 14.4538 11.8509 14.1491C11.5461 13.8443 11.3749 13.431 11.3749 13C11.3749 12.569 11.5461 12.1557 11.8509 11.851C12.1556 11.5462 12.5689 11.375 12.9999 11.375ZM8.12492 4.55651C7.70134 4.80134 7.22575 5.62142 7.47817 7.56384C7.49984 7.73284 7.52728 7.90653 7.5605 8.08492C8.308 7.93253 9.10678 7.81337 9.95684 7.72742C10.4267 7.07035 10.9296 6.43759 11.4638 5.83159C11.3296 5.71777 11.1927 5.60724 11.0532 5.50009C9.4975 4.30951 8.54959 4.31167 8.12492 4.55651ZM17.8749 4.55651C17.4513 4.31167 16.5023 4.31059 14.9467 5.50009C14.8075 5.60725 14.671 5.71779 14.5372 5.83159C15.042 6.40142 15.5468 7.03517 16.043 7.72742C16.8938 7.81337 17.6929 7.93253 18.4404 8.08492C18.4717 7.91227 18.4988 7.73889 18.5217 7.56492C18.7752 5.62251 18.2996 4.80134 17.8749 4.55651Z" fill="currentColor"/>
</svg>
